<?xml version="1.0" standalone="no"?>
<!DOCTYPE svg PUBLIC "-//W3C//DTD SVG 20010904//EN"
 "http://www.w3.org/TR/2001/REC-SVG-20010904/DTD/svg10.dtd">
<svg version="1.0" xmlns="http://www.w3.org/2000/svg"
 width="512.000000pt" height="512.000000pt" viewBox="0 0 512.000000 512.000000"
 preserveAspectRatio="xMidYMid meet">

<g transform="translate(0.000000,512.000000) scale(0.100000,-0.100000)"
fill="#000000" stroke="none">
<path d="M388 5104 c-185 -44 -329 -189 -373 -376 -22 -95 -22 -4241 0 -4336
45 -189 188 -332 377 -377 55 -13 347 -15 2164 -15 1380 0 2120 3 2155 10 190
36 348 189 394 382 22 95 22 4241 0 4336 -46 193 -204 346 -394 382 -35 7
-773 10 -2160 9 -1759 -1 -2115 -3 -2163 -15z m4022 -2392 c52 -11 118 -29
145 -39 l50 -19 3 -232 c1 -128 0 -232 -3 -232 -3 0 -48 20 -99 45 -143 70
-262 97 -426 99 -151 1 -212 -12 -292 -63 -112 -71 -118 -217 -13 -310 61 -53
112 -81 315 -173 253 -115 336 -164 435 -263 135 -133 180 -257 172 -470 -3
-99 -9 -133 -32 -195 -70 -190 -199 -309 -412 -380 -147 -49 -266 -63 -498
-57 -225 5 -346 25 -495 80 l-85 32 -3 257 -2 258 52 -40 c250 -190 651 -247
850 -121 64 41 92 95 86 172 -9 127 -106 203 -438 344 -192 81 -280 135 -381
235 -93 92 -135 163 -164 275 -19 76 -19 241 0 323 61 259 296 436 650 491
105 17 476 6 585 -17z m-1440 -227 l0 -205 -320 0 -320 0 0 -915 0 -915 -255
0 -255 0 -2 913 -3 912 -317 3 -318 2 0 205 0 205 895 0 895 0 0 -205z"/>
</g>
</svg>
